<mxfile modified="2023-11-02T11:27:38.053Z" host="app.diagrams.net" agent="Mozilla/5.0 (Windows NT 10.0; Win64; x64) AppleWebKit/537.36 (KHTML, like Gecko) Chrome/119.0.0.0 Safari/537.36" etag="T2TwpCeh44z3LZZ6hGjb" version="22.0.8" type="github">
  <diagram id="f106602c-feb2-e66a-4537-3a34d633f6aa" name="Page-1">
    <mxGraphModel dx="2569" dy="775" grid="1" gridSize="10" guides="1" tooltips="1" connect="1" arrows="1" fold="1" page="1" pageScale="1" pageWidth="1169" pageHeight="827" background="none" math="0" shadow="0">
      <root>
        <mxCell id="0" />
        <mxCell id="1" parent="0" />
        <mxCell id="TUm6tsFVRpP6n760HhnM-81" value="sdfsdfsd" style="childLayout=tableLayout;recursiveResize=0;strokeColor=#98bf21;fillColor=#A7C942;shadow=1;fontFamily=Comic Sans MS;fontStyle=1;labelBorderColor=none;" vertex="1" parent="1">
          <mxGeometry x="50" y="190" width="880" height="340" as="geometry" />
        </mxCell>
        <mxCell id="TUm6tsFVRpP6n760HhnM-82" style="shape=tableRow;horizontal=0;startSize=0;swimlaneHead=0;swimlaneBody=0;top=0;left=0;bottom=0;right=0;dropTarget=0;collapsible=0;recursiveResize=0;expand=0;fontStyle=1;strokeColor=inherit;fillColor=#ffffff;fontFamily=Comic Sans MS;labelBorderColor=none;" vertex="1" parent="TUm6tsFVRpP6n760HhnM-81">
          <mxGeometry width="880" height="54" as="geometry" />
        </mxCell>
        <mxCell id="TUm6tsFVRpP6n760HhnM-122" value="Pizza&lt;span style=&quot;white-space: pre; font-size: 25px;&quot;&gt;&#x9;&lt;/span&gt;&lt;span style=&quot;white-space: pre; font-size: 25px;&quot;&gt;&#x9;&lt;/span&gt;&lt;span style=&quot;white-space: pre; font-size: 25px;&quot;&gt;&#x9;&lt;/span&gt;" style="connectable=0;recursiveResize=0;strokeColor=inherit;fillColor=#A7C942;align=center;fontStyle=1;fontColor=#FFFFFF;html=1;fontFamily=Comic Sans MS;labelBorderColor=none;fontSize=25;" vertex="1" parent="TUm6tsFVRpP6n760HhnM-82">
          <mxGeometry width="140" height="54" as="geometry">
            <mxRectangle width="140" height="54" as="alternateBounds" />
          </mxGeometry>
        </mxCell>
        <mxCell id="TUm6tsFVRpP6n760HhnM-117" value="Baked Wings" style="connectable=0;recursiveResize=0;strokeColor=inherit;fillColor=#A7C942;align=center;fontStyle=1;fontColor=#FFFFFF;html=1;fontFamily=Comic Sans MS;labelBorderColor=none;fontSize=25;" vertex="1" parent="TUm6tsFVRpP6n760HhnM-82">
          <mxGeometry x="140" width="190" height="54" as="geometry">
            <mxRectangle width="190" height="54" as="alternateBounds" />
          </mxGeometry>
        </mxCell>
        <mxCell id="TUm6tsFVRpP6n760HhnM-112" value="Combo&lt;span style=&quot;white-space: pre; font-size: 25px;&quot;&gt;&#x9;&lt;/span&gt;" style="connectable=0;recursiveResize=0;strokeColor=inherit;fillColor=#A7C942;align=center;fontStyle=1;fontColor=#FFFFFF;html=1;fontFamily=Comic Sans MS;labelBorderColor=none;fontSize=25;" vertex="1" parent="TUm6tsFVRpP6n760HhnM-82">
          <mxGeometry x="330" width="150" height="54" as="geometry">
            <mxRectangle width="150" height="54" as="alternateBounds" />
          </mxGeometry>
        </mxCell>
        <mxCell id="TUm6tsFVRpP6n760HhnM-107" value="Salads" style="connectable=0;recursiveResize=0;strokeColor=inherit;fillColor=#A7C942;align=center;fontStyle=1;fontColor=#FFFFFF;html=1;fontFamily=Comic Sans MS;labelBorderColor=none;fontSize=25;" vertex="1" parent="TUm6tsFVRpP6n760HhnM-82">
          <mxGeometry x="480" width="110" height="54" as="geometry">
            <mxRectangle width="110" height="54" as="alternateBounds" />
          </mxGeometry>
        </mxCell>
        <mxCell id="TUm6tsFVRpP6n760HhnM-83" value="Calzones" style="connectable=0;recursiveResize=0;strokeColor=inherit;fillColor=#A7C942;align=center;fontStyle=1;fontColor=#FFFFFF;html=1;fontFamily=Comic Sans MS;labelBorderColor=none;fontSize=25;" vertex="1" parent="TUm6tsFVRpP6n760HhnM-82">
          <mxGeometry x="590" width="120" height="54" as="geometry">
            <mxRectangle width="120" height="54" as="alternateBounds" />
          </mxGeometry>
        </mxCell>
        <mxCell id="TUm6tsFVRpP6n760HhnM-84" value="Beverages" style="connectable=0;recursiveResize=0;strokeColor=inherit;fillColor=#A7C942;align=center;fontStyle=1;fontColor=#FFFFFF;html=1;fontFamily=Comic Sans MS;labelBorderColor=none;fontSize=25;" vertex="1" parent="TUm6tsFVRpP6n760HhnM-82">
          <mxGeometry x="710" width="170" height="54" as="geometry">
            <mxRectangle width="170" height="54" as="alternateBounds" />
          </mxGeometry>
        </mxCell>
        <mxCell id="TUm6tsFVRpP6n760HhnM-86" value="" style="shape=tableRow;horizontal=0;startSize=0;swimlaneHead=0;swimlaneBody=0;top=0;left=0;bottom=0;right=0;dropTarget=0;collapsible=0;recursiveResize=0;expand=0;fontStyle=1;strokeColor=inherit;fillColor=#ffffff;fontFamily=Comic Sans MS;labelBorderColor=none;fontSize=23;" vertex="1" parent="TUm6tsFVRpP6n760HhnM-81">
          <mxGeometry y="54" width="880" height="54" as="geometry" />
        </mxCell>
        <mxCell id="TUm6tsFVRpP6n760HhnM-123" value="Img" style="connectable=0;recursiveResize=0;strokeColor=inherit;fillColor=inherit;align=center;whiteSpace=wrap;html=1;fontStyle=1;labelBackgroundColor=none;fontFamily=Comic Sans MS;labelBorderColor=none;fontSize=23;" vertex="1" parent="TUm6tsFVRpP6n760HhnM-86">
          <mxGeometry width="140" height="54" as="geometry">
            <mxRectangle width="140" height="54" as="alternateBounds" />
          </mxGeometry>
        </mxCell>
        <mxCell id="TUm6tsFVRpP6n760HhnM-118" value="Img" style="connectable=0;recursiveResize=0;strokeColor=inherit;fillColor=inherit;align=center;whiteSpace=wrap;html=1;fontStyle=1;fontFamily=Comic Sans MS;labelBorderColor=none;fontSize=23;" vertex="1" parent="TUm6tsFVRpP6n760HhnM-86">
          <mxGeometry x="140" width="190" height="54" as="geometry">
            <mxRectangle width="190" height="54" as="alternateBounds" />
          </mxGeometry>
        </mxCell>
        <mxCell id="TUm6tsFVRpP6n760HhnM-113" value="Img" style="connectable=0;recursiveResize=0;strokeColor=inherit;fillColor=inherit;align=center;whiteSpace=wrap;html=1;fontStyle=1;fontFamily=Comic Sans MS;labelBorderColor=none;fontSize=23;" vertex="1" parent="TUm6tsFVRpP6n760HhnM-86">
          <mxGeometry x="330" width="150" height="54" as="geometry">
            <mxRectangle width="150" height="54" as="alternateBounds" />
          </mxGeometry>
        </mxCell>
        <mxCell id="TUm6tsFVRpP6n760HhnM-108" value="Img" style="connectable=0;recursiveResize=0;strokeColor=inherit;fillColor=inherit;align=center;whiteSpace=wrap;html=1;fontStyle=1;fontFamily=Comic Sans MS;labelBorderColor=none;fontSize=23;" vertex="1" parent="TUm6tsFVRpP6n760HhnM-86">
          <mxGeometry x="480" width="110" height="54" as="geometry">
            <mxRectangle width="110" height="54" as="alternateBounds" />
          </mxGeometry>
        </mxCell>
        <mxCell id="TUm6tsFVRpP6n760HhnM-87" value="Img" style="connectable=0;recursiveResize=0;strokeColor=inherit;fillColor=inherit;align=center;whiteSpace=wrap;html=1;fontStyle=1;fontFamily=Comic Sans MS;labelBorderColor=none;fontSize=23;" vertex="1" parent="TUm6tsFVRpP6n760HhnM-86">
          <mxGeometry x="590" width="120" height="54" as="geometry">
            <mxRectangle width="120" height="54" as="alternateBounds" />
          </mxGeometry>
        </mxCell>
        <mxCell id="TUm6tsFVRpP6n760HhnM-88" value="Img" style="connectable=0;recursiveResize=0;strokeColor=inherit;fillColor=inherit;align=center;whiteSpace=wrap;html=1;fontStyle=1;fontFamily=Comic Sans MS;labelBorderColor=none;fontSize=23;" vertex="1" parent="TUm6tsFVRpP6n760HhnM-86">
          <mxGeometry x="710" width="170" height="54" as="geometry">
            <mxRectangle width="170" height="54" as="alternateBounds" />
          </mxGeometry>
        </mxCell>
        <mxCell id="TUm6tsFVRpP6n760HhnM-90" value="" style="shape=tableRow;horizontal=0;startSize=0;swimlaneHead=0;swimlaneBody=0;top=0;left=0;bottom=0;right=0;dropTarget=0;collapsible=0;recursiveResize=0;expand=0;fontStyle=1;strokeColor=inherit;fillColor=#EAF2D3;fontFamily=Comic Sans MS;labelBorderColor=none;fontSize=23;" vertex="1" parent="TUm6tsFVRpP6n760HhnM-81">
          <mxGeometry y="108" width="880" height="74" as="geometry" />
        </mxCell>
        <mxCell id="TUm6tsFVRpP6n760HhnM-124" value="Name" style="connectable=0;recursiveResize=0;strokeColor=inherit;fillColor=inherit;whiteSpace=wrap;html=1;fontFamily=Comic Sans MS;fontStyle=1;labelBorderColor=none;verticalAlign=middle;fontSize=23;" vertex="1" parent="TUm6tsFVRpP6n760HhnM-90">
          <mxGeometry width="140" height="74" as="geometry">
            <mxRectangle width="140" height="74" as="alternateBounds" />
          </mxGeometry>
        </mxCell>
        <mxCell id="TUm6tsFVRpP6n760HhnM-119" value="Name" style="connectable=0;recursiveResize=0;strokeColor=inherit;fillColor=inherit;whiteSpace=wrap;html=1;fontFamily=Comic Sans MS;fontStyle=1;labelBorderColor=none;fontSize=23;" vertex="1" parent="TUm6tsFVRpP6n760HhnM-90">
          <mxGeometry x="140" width="190" height="74" as="geometry">
            <mxRectangle width="190" height="74" as="alternateBounds" />
          </mxGeometry>
        </mxCell>
        <mxCell id="TUm6tsFVRpP6n760HhnM-114" value="Name" style="connectable=0;recursiveResize=0;strokeColor=inherit;fillColor=inherit;whiteSpace=wrap;html=1;fontFamily=Comic Sans MS;fontStyle=1;labelBorderColor=none;fontSize=23;" vertex="1" parent="TUm6tsFVRpP6n760HhnM-90">
          <mxGeometry x="330" width="150" height="74" as="geometry">
            <mxRectangle width="150" height="74" as="alternateBounds" />
          </mxGeometry>
        </mxCell>
        <mxCell id="TUm6tsFVRpP6n760HhnM-109" value="Name" style="connectable=0;recursiveResize=0;strokeColor=inherit;fillColor=inherit;whiteSpace=wrap;html=1;fontFamily=Comic Sans MS;fontStyle=1;labelBorderColor=none;fontSize=23;" vertex="1" parent="TUm6tsFVRpP6n760HhnM-90">
          <mxGeometry x="480" width="110" height="74" as="geometry">
            <mxRectangle width="110" height="74" as="alternateBounds" />
          </mxGeometry>
        </mxCell>
        <mxCell id="TUm6tsFVRpP6n760HhnM-91" value="Name" style="connectable=0;recursiveResize=0;strokeColor=inherit;fillColor=inherit;whiteSpace=wrap;html=1;fontFamily=Comic Sans MS;fontStyle=1;labelBorderColor=none;fontSize=23;" vertex="1" parent="TUm6tsFVRpP6n760HhnM-90">
          <mxGeometry x="590" width="120" height="74" as="geometry">
            <mxRectangle width="120" height="74" as="alternateBounds" />
          </mxGeometry>
        </mxCell>
        <mxCell id="TUm6tsFVRpP6n760HhnM-92" value="Name" style="connectable=0;recursiveResize=0;strokeColor=inherit;fillColor=inherit;whiteSpace=wrap;html=1;fontFamily=Comic Sans MS;fontStyle=1;labelBorderColor=none;fontSize=23;" vertex="1" parent="TUm6tsFVRpP6n760HhnM-90">
          <mxGeometry x="710" width="170" height="74" as="geometry">
            <mxRectangle width="170" height="74" as="alternateBounds" />
          </mxGeometry>
        </mxCell>
        <mxCell id="TUm6tsFVRpP6n760HhnM-94" value="" style="shape=tableRow;horizontal=0;startSize=0;swimlaneHead=0;swimlaneBody=0;top=0;left=0;bottom=0;right=0;dropTarget=0;collapsible=0;recursiveResize=0;expand=0;fontStyle=1;strokeColor=inherit;fillColor=#ffffff;fontFamily=Comic Sans MS;labelBorderColor=none;fontSize=23;" vertex="1" parent="TUm6tsFVRpP6n760HhnM-81">
          <mxGeometry y="182" width="880" height="55" as="geometry" />
        </mxCell>
        <mxCell id="TUm6tsFVRpP6n760HhnM-125" value="Desc" style="connectable=0;recursiveResize=0;strokeColor=inherit;fillColor=inherit;fontStyle=1;align=center;whiteSpace=wrap;html=1;fontFamily=Comic Sans MS;labelBorderColor=none;fontSize=23;" vertex="1" parent="TUm6tsFVRpP6n760HhnM-94">
          <mxGeometry width="140" height="55" as="geometry">
            <mxRectangle width="140" height="55" as="alternateBounds" />
          </mxGeometry>
        </mxCell>
        <mxCell id="TUm6tsFVRpP6n760HhnM-120" value="Desc" style="connectable=0;recursiveResize=0;strokeColor=inherit;fillColor=inherit;fontStyle=1;align=center;whiteSpace=wrap;html=1;fontFamily=Comic Sans MS;labelBorderColor=none;fontSize=23;" vertex="1" parent="TUm6tsFVRpP6n760HhnM-94">
          <mxGeometry x="140" width="190" height="55" as="geometry">
            <mxRectangle width="190" height="55" as="alternateBounds" />
          </mxGeometry>
        </mxCell>
        <mxCell id="TUm6tsFVRpP6n760HhnM-115" value="Desc" style="connectable=0;recursiveResize=0;strokeColor=inherit;fillColor=inherit;fontStyle=1;align=center;whiteSpace=wrap;html=1;fontFamily=Comic Sans MS;labelBorderColor=none;fontSize=23;" vertex="1" parent="TUm6tsFVRpP6n760HhnM-94">
          <mxGeometry x="330" width="150" height="55" as="geometry">
            <mxRectangle width="150" height="55" as="alternateBounds" />
          </mxGeometry>
        </mxCell>
        <mxCell id="TUm6tsFVRpP6n760HhnM-110" value="Desc" style="connectable=0;recursiveResize=0;strokeColor=inherit;fillColor=inherit;fontStyle=1;align=center;whiteSpace=wrap;html=1;fontFamily=Comic Sans MS;labelBorderColor=none;fontSize=23;" vertex="1" parent="TUm6tsFVRpP6n760HhnM-94">
          <mxGeometry x="480" width="110" height="55" as="geometry">
            <mxRectangle width="110" height="55" as="alternateBounds" />
          </mxGeometry>
        </mxCell>
        <mxCell id="TUm6tsFVRpP6n760HhnM-95" value="Desc" style="connectable=0;recursiveResize=0;strokeColor=inherit;fillColor=inherit;fontStyle=1;align=center;whiteSpace=wrap;html=1;fontFamily=Comic Sans MS;labelBorderColor=none;fontSize=23;" vertex="1" parent="TUm6tsFVRpP6n760HhnM-94">
          <mxGeometry x="590" width="120" height="55" as="geometry">
            <mxRectangle width="120" height="55" as="alternateBounds" />
          </mxGeometry>
        </mxCell>
        <mxCell id="TUm6tsFVRpP6n760HhnM-96" value="Desc" style="connectable=0;recursiveResize=0;strokeColor=inherit;fillColor=inherit;fontStyle=1;align=center;whiteSpace=wrap;html=1;fontFamily=Comic Sans MS;labelBorderColor=none;fontSize=23;" vertex="1" parent="TUm6tsFVRpP6n760HhnM-94">
          <mxGeometry x="710" width="170" height="55" as="geometry">
            <mxRectangle width="170" height="55" as="alternateBounds" />
          </mxGeometry>
        </mxCell>
        <mxCell id="TUm6tsFVRpP6n760HhnM-98" value="" style="shape=tableRow;horizontal=0;startSize=0;swimlaneHead=0;swimlaneBody=0;top=0;left=0;bottom=0;right=0;dropTarget=0;collapsible=0;recursiveResize=0;expand=0;fontStyle=1;strokeColor=inherit;fillColor=#EAF2D3;fontFamily=Comic Sans MS;labelBorderColor=none;fontSize=23;" vertex="1" parent="TUm6tsFVRpP6n760HhnM-81">
          <mxGeometry y="237" width="880" height="52" as="geometry" />
        </mxCell>
        <mxCell id="TUm6tsFVRpP6n760HhnM-126" value="Price" style="connectable=0;recursiveResize=0;strokeColor=inherit;fillColor=inherit;whiteSpace=wrap;html=1;fontFamily=Comic Sans MS;fontStyle=1;labelBorderColor=none;fontSize=23;" vertex="1" parent="TUm6tsFVRpP6n760HhnM-98">
          <mxGeometry width="140" height="52" as="geometry">
            <mxRectangle width="140" height="52" as="alternateBounds" />
          </mxGeometry>
        </mxCell>
        <mxCell id="TUm6tsFVRpP6n760HhnM-121" value="Price" style="connectable=0;recursiveResize=0;strokeColor=inherit;fillColor=inherit;whiteSpace=wrap;html=1;fontFamily=Comic Sans MS;fontStyle=1;labelBorderColor=none;fontSize=23;" vertex="1" parent="TUm6tsFVRpP6n760HhnM-98">
          <mxGeometry x="140" width="190" height="52" as="geometry">
            <mxRectangle width="190" height="52" as="alternateBounds" />
          </mxGeometry>
        </mxCell>
        <mxCell id="TUm6tsFVRpP6n760HhnM-116" value="Price" style="connectable=0;recursiveResize=0;strokeColor=inherit;fillColor=inherit;whiteSpace=wrap;html=1;fontFamily=Comic Sans MS;fontStyle=1;labelBorderColor=none;fontSize=23;" vertex="1" parent="TUm6tsFVRpP6n760HhnM-98">
          <mxGeometry x="330" width="150" height="52" as="geometry">
            <mxRectangle width="150" height="52" as="alternateBounds" />
          </mxGeometry>
        </mxCell>
        <mxCell id="TUm6tsFVRpP6n760HhnM-111" value="Price" style="connectable=0;recursiveResize=0;strokeColor=inherit;fillColor=inherit;whiteSpace=wrap;html=1;fontFamily=Comic Sans MS;fontStyle=1;labelBorderColor=none;fontSize=23;" vertex="1" parent="TUm6tsFVRpP6n760HhnM-98">
          <mxGeometry x="480" width="110" height="52" as="geometry">
            <mxRectangle width="110" height="52" as="alternateBounds" />
          </mxGeometry>
        </mxCell>
        <mxCell id="TUm6tsFVRpP6n760HhnM-99" value="Price" style="connectable=0;recursiveResize=0;strokeColor=inherit;fillColor=inherit;whiteSpace=wrap;html=1;fontFamily=Comic Sans MS;fontStyle=1;labelBorderColor=none;fontSize=23;" vertex="1" parent="TUm6tsFVRpP6n760HhnM-98">
          <mxGeometry x="590" width="120" height="52" as="geometry">
            <mxRectangle width="120" height="52" as="alternateBounds" />
          </mxGeometry>
        </mxCell>
        <mxCell id="TUm6tsFVRpP6n760HhnM-100" value="Price" style="connectable=0;recursiveResize=0;strokeColor=inherit;fillColor=inherit;whiteSpace=wrap;html=1;fontFamily=Comic Sans MS;fontStyle=1;labelBorderColor=none;fontSize=23;" vertex="1" parent="TUm6tsFVRpP6n760HhnM-98">
          <mxGeometry x="710" width="170" height="52" as="geometry">
            <mxRectangle width="170" height="52" as="alternateBounds" />
          </mxGeometry>
        </mxCell>
        <mxCell id="TUm6tsFVRpP6n760HhnM-127" value="" style="shape=tableRow;horizontal=0;startSize=0;swimlaneHead=0;swimlaneBody=0;top=0;left=0;bottom=0;right=0;dropTarget=0;collapsible=0;recursiveResize=0;expand=0;fontStyle=1;strokeColor=inherit;fillColor=#EAF2D3;fontFamily=Comic Sans MS;labelBorderColor=none;" vertex="1" parent="TUm6tsFVRpP6n760HhnM-81">
          <mxGeometry y="289" width="880" height="51" as="geometry" />
        </mxCell>
        <mxCell id="TUm6tsFVRpP6n760HhnM-128" value="Size" style="connectable=0;recursiveResize=0;strokeColor=inherit;fillColor=inherit;whiteSpace=wrap;html=1;fontFamily=Comic Sans MS;fontStyle=1;labelBorderColor=none;" vertex="1" parent="TUm6tsFVRpP6n760HhnM-127">
          <mxGeometry width="140" height="51" as="geometry">
            <mxRectangle width="140" height="51" as="alternateBounds" />
          </mxGeometry>
        </mxCell>
        <mxCell id="TUm6tsFVRpP6n760HhnM-129" value="Pieces" style="connectable=0;recursiveResize=0;strokeColor=inherit;fillColor=inherit;whiteSpace=wrap;html=1;fontFamily=Comic Sans MS;fontStyle=1;labelBorderColor=none;" vertex="1" parent="TUm6tsFVRpP6n760HhnM-127">
          <mxGeometry x="140" width="190" height="51" as="geometry">
            <mxRectangle width="190" height="51" as="alternateBounds" />
          </mxGeometry>
        </mxCell>
        <mxCell id="TUm6tsFVRpP6n760HhnM-130" value="" style="connectable=0;recursiveResize=0;strokeColor=inherit;fillColor=inherit;whiteSpace=wrap;html=1;fontFamily=Comic Sans MS;fontStyle=1;labelBorderColor=none;" vertex="1" parent="TUm6tsFVRpP6n760HhnM-127">
          <mxGeometry x="330" width="150" height="51" as="geometry">
            <mxRectangle width="150" height="51" as="alternateBounds" />
          </mxGeometry>
        </mxCell>
        <mxCell id="TUm6tsFVRpP6n760HhnM-131" style="connectable=0;recursiveResize=0;strokeColor=inherit;fillColor=inherit;whiteSpace=wrap;html=1;fontFamily=Comic Sans MS;fontStyle=1;labelBorderColor=none;" vertex="1" parent="TUm6tsFVRpP6n760HhnM-127">
          <mxGeometry x="480" width="110" height="51" as="geometry">
            <mxRectangle width="110" height="51" as="alternateBounds" />
          </mxGeometry>
        </mxCell>
        <mxCell id="TUm6tsFVRpP6n760HhnM-132" value="" style="connectable=0;recursiveResize=0;strokeColor=inherit;fillColor=inherit;whiteSpace=wrap;html=1;fontFamily=Comic Sans MS;fontStyle=1;labelBorderColor=none;" vertex="1" parent="TUm6tsFVRpP6n760HhnM-127">
          <mxGeometry x="590" width="120" height="51" as="geometry">
            <mxRectangle width="120" height="51" as="alternateBounds" />
          </mxGeometry>
        </mxCell>
        <mxCell id="TUm6tsFVRpP6n760HhnM-133" value="" style="connectable=0;recursiveResize=0;strokeColor=inherit;fillColor=inherit;whiteSpace=wrap;html=1;fontFamily=Comic Sans MS;fontStyle=1;labelBorderColor=none;" vertex="1" parent="TUm6tsFVRpP6n760HhnM-127">
          <mxGeometry x="710" width="170" height="51" as="geometry">
            <mxRectangle width="170" height="51" as="alternateBounds" />
          </mxGeometry>
        </mxCell>
        <mxCell id="TUm6tsFVRpP6n760HhnM-134" value="Menu" style="text;strokeColor=none;fillColor=none;html=1;fontSize=24;fontStyle=1;verticalAlign=middle;align=center;fontFamily=Comic Sans MS;fontColor=#97D077;" vertex="1" parent="1">
          <mxGeometry x="40" y="140" width="100" height="40" as="geometry" />
        </mxCell>
        <mxCell id="TUm6tsFVRpP6n760HhnM-135" style="edgeStyle=orthogonalEdgeStyle;rounded=0;orthogonalLoop=1;jettySize=auto;html=1;exitX=0.5;exitY=1;exitDx=0;exitDy=0;" edge="1" parent="1" source="TUm6tsFVRpP6n760HhnM-134" target="TUm6tsFVRpP6n760HhnM-134">
          <mxGeometry relative="1" as="geometry" />
        </mxCell>
        <mxCell id="TUm6tsFVRpP6n760HhnM-136" value="Papazzi pizzaria Apis" style="text;html=1;fontSize=24;fontStyle=1;verticalAlign=middle;align=center;fontFamily=Comic Sans MS;fontColor=#97D077;" vertex="1" parent="1">
          <mxGeometry x="90" y="10" width="100" height="40" as="geometry" />
        </mxCell>
      </root>
    </mxGraphModel>
  </diagram>
</mxfile>
